# xmcd
#
# Track frame offsets: 
#        150
#        56304
#        73348
#        102566
#
# Disc length: 1586 seconds
#
# Revision: 0
# Processed by: cddbd v1.5.2PL0 Copyright (c) Steve Scherf et al.
# Submitted via: ExactAudioCopyFreeDBPlugin 1.0
#
DISCID=36063004
DTITLE=Ken Hensley and Live Fire - 2013 -  Live!! Cd 2
DYEAR=2013
DGENRE=
TTITLE0=Lady In Black 
TTITLE1=Rain 
TTITLE2=Gypsy 
TTITLE3=Love Machine 
EXTD=
EXTT0=
EXTT1=
EXTT2=
EXTT3=
PLAYORDER=
